<?xml version="1.0" encoding="UTF-8" standalone="no"?>
<svg
   xmlns:dc="http://purl.org/dc/elements/1.1/"
   xmlns:cc="http://creativecommons.org/ns#"
   xmlns:rdf="http://www.w3.org/1999/02/22-rdf-syntax-ns#"
   xmlns:svg="http://www.w3.org/2000/svg"
   xmlns="http://www.w3.org/2000/svg"
   xmlns:sodipodi="http://sodipodi.sourceforge.net/DTD/sodipodi-0.dtd"
   xmlns:inkscape="http://www.inkscape.org/namespaces/inkscape"
   version="1.0"
   width="100pt"
   height="100pt"
   viewBox="0 0 100 100"
   preserveAspectRatio="xMidYMid meet"
   id="svg3735"
   sodipodi:docname="edit.svg"
   inkscape:version="0.92.3 (2405546, 2018-03-11)">
  <defs
     id="defs3739" />
  <sodipodi:namedview
     pagecolor="#ffffff"
     bordercolor="#666666"
     borderopacity="1"
     objecttolerance="10"
     gridtolerance="10"
     guidetolerance="10"
     inkscape:pageopacity="0"
     inkscape:pageshadow="2"
     inkscape:window-width="1920"
     inkscape:window-height="1057"
     id="namedview3737"
     showgrid="false"
     inkscape:zoom="2.6015625"
     inkscape:cx="108.2042"
     inkscape:cy="134.96889"
     inkscape:window-x="-8"
     inkscape:window-y="-8"
     inkscape:window-maximized="1"
     inkscape:current-layer="svg3735" />
  <metadata
     id="metadata3727">
Created by potrace 1.15, written by Peter Selinger 2001-2017
<rdf:RDF>
  <cc:Work
     rdf:about="">
    <dc:format>image/svg+xml</dc:format>
    <dc:type
       rdf:resource="http://purl.org/dc/dcmitype/StillImage" />
    <dc:title></dc:title>
  </cc:Work>
</rdf:RDF>
</metadata>
  <g
     transform="matrix(0.03261768,0,0,-0.03261768,7.5150741,90.075975)"
     id="g3733"
     style="fill:#000037;stroke:none;fill-opacity:1">
    <path
       d="m 1016,2410 c -14,-17 -28,-49 -32,-76 -4,-32 -9,-42 -16,-33 -6,10 -7,6 -3,-11 7,-30 -20,-167 -37,-187 -15,-18 -84,-54 -92,-48 -3,3 -4,2 -1,-2 3,-3 -17,-19 -45,-35 -67,-38 -110,-36 -258,13 l -123,41 -33,-23 c -24,-16 -66,-77 -140,-203 -95,-162 -106,-185 -106,-229 0,-47 2,-50 68,-110 37,-34 88,-83 115,-108 l 47,-46 v -114 c 0,-137 0,-136 -123,-245 -48,-42 -92,-85 -97,-95 -6,-10 -10,-37 -10,-61 0,-36 15,-68 101,-213 56,-93 109,-178 117,-187 29,-34 70,-31 197,12 138,46 171,49 223,16 20,-13 61,-35 89,-50 29,-14 59,-36 67,-49 8,-12 26,-76 41,-142 32,-153 40,-171 77,-184 39,-14 437,-15 473,-1 33,13 48,48 76,188 12,64 30,123 40,136 26,33 193,126 226,126 14,0 83,-18 152,-41 183,-59 170,-66 309,168 148,248 148,249 -1,380 -57,50 -106,102 -114,120 -20,49 -17,201 5,239 9,17 61,71 115,119 100,90 113,112 104,169 -7,43 -215,384 -250,410 l -28,21 -122,-43 c -145,-50 -189,-53 -258,-15 -27,14 -49,29 -49,33 0,4 -6,7 -12,7 -25,0 -88,46 -93,67 -21,88 -32,161 -28,173 3,7 1,13 -5,13 -5,0 -12,18 -16,41 -4,25 -17,50 -33,65 -26,24 -26,24 -259,24 h -232 z m 425,-459 c 313,-80 519,-347 519,-671 0,-385 -301,-689 -683,-690 -205,0 -418,101 -542,258 -184,232 -194,581 -24,828 45,66 137,152 203,193 60,36 166,78 231,91 76,15 218,11 296,-9 z"
       id="path3729"
       inkscape:connector-curvature="0"
       style="fill:#000037;fill-opacity:1" />
    <path
       d="m 1176,1739 c -28,-4 -82,-24 -122,-44 -153,-75 -244,-230 -244,-414 0,-196 93,-350 259,-430 76,-36 77,-36 211,-36 131,0 137,1 202,32 73,34 156,105 194,165 70,110 89,297 45,427 -55,159 -170,263 -329,297 -73,15 -140,16 -216,3 z m 238,-193 c 105,-51 160,-143 160,-266 0,-173 -123,-301 -289,-302 -172,-1 -292,109 -303,278 -7,104 16,163 88,236 69,69 123,89 222,84 47,-2 84,-11 122,-30 z"
       id="path3731"
       inkscape:connector-curvature="0"
       style="fill:#000037;fill-opacity:1" />
  </g>
</svg>
