<?xml version="1.0" encoding="UTF-8" standalone="no"?>
<svg
   xmlns:dc="http://purl.org/dc/elements/1.1/"
   xmlns:cc="http://creativecommons.org/ns#"
   xmlns:rdf="http://www.w3.org/1999/02/22-rdf-syntax-ns#"
   xmlns:svg="http://www.w3.org/2000/svg"
   xmlns="http://www.w3.org/2000/svg"
   xmlns:sodipodi="http://sodipodi.sourceforge.net/DTD/sodipodi-0.dtd"
   xmlns:inkscape="http://www.inkscape.org/namespaces/inkscape"
   version="1.0"
   width="50pt"
   height="50pt"
   viewBox="0 0 50 50"
   preserveAspectRatio="xMidYMid meet"
   id="svg3782"
   sodipodi:docname="trash.svg"
   inkscape:version="0.92.3 (2405546, 2018-03-11)">
  <defs
     id="defs3786" />
  <sodipodi:namedview
     pagecolor="#ffffff"
     bordercolor="#666666"
     borderopacity="1"
     objecttolerance="10"
     gridtolerance="10"
     guidetolerance="10"
     inkscape:pageopacity="0"
     inkscape:pageshadow="2"
     inkscape:window-width="1920"
     inkscape:window-height="1057"
     id="namedview3784"
     showgrid="false"
     inkscape:zoom="5.53125"
     inkscape:cx="53.740113"
     inkscape:cy="40.429281"
     inkscape:window-x="-8"
     inkscape:window-y="-8"
     inkscape:window-maximized="1"
     inkscape:current-layer="g3780" />
  <metadata
     id="metadata3774">
Created by potrace 1.15, written by Peter Selinger 2001-2017
<rdf:RDF>
  <cc:Work
     rdf:about="">
    <dc:format>image/svg+xml</dc:format>
    <dc:type
       rdf:resource="http://purl.org/dc/dcmitype/StillImage" />
    <dc:title></dc:title>
  </cc:Work>
</rdf:RDF>
</metadata>
  <g
     transform="matrix(0.1,0,0,-0.1,0,49.999996)"
     id="g3780"
     style="fill:#000000;stroke:none">
    <path
       d="m 198.49144,428.19656 c -5.40003,-1.92203 -10.06776,-6.1322 -12.722,-11.53219 -2.28818,-4.48474 -2.37972,-5.49153 -2.37972,-19.22032 v -14.46104 h -36.42706 c -40.7288,0 -42.65084,-0.27457 -49.332191,-5.94913 -2.10508,-1.739 -4.75932,-5.12542 -5.94915,-7.59663 -2.01355,-4.0271 -2.10508,-5.30845 -2.10508,-22.14913 0,-16.93218 0.0915,-18.0305 2.19661,-22.24067 1.18983,-2.37963 3.84406,-5.76609 5.85762,-7.50509 7.322031,-6.31524 -1.00677,-5.94913 144.335571,-5.94913 148.9118,0 137.74568,-0.54914 145.61688,7.32202 6.49831,6.49831 7.41352,10.61694 7.04745,30.93558 -0.36615,18.48814 -1.09836,21.05085 -8.23735,27.09151 -6.77284,5.7661 -8.69487,6.04067 -48.87454,6.04067 h -35.87792 l -0.36607,14.46104 c -0.45768,15.37626 -1.28135,18.39657 -5.85764,23.88809 -1.28135,1.55597 -4.30175,4.02714 -6.68138,5.40003 l -4.21013,2.47117 -41.18649,0.18304 c -34.04743,0.0915 -41.8271,-0.0915 -44.84741,-1.18982 z m 72.85421,-24.80338 c 3.84406,-2.28814 5.40003,-6.31523 5.40003,-13.91186 v -6.49831 H 241.8745 207.00332 l 0.27453,7.8712 c 0.36615,7.68812 0.45768,7.8712 3.75261,10.98305 l 3.47791,3.11185 h 27.09152 c 23.88813,0 27.36612,-0.18304 29.74576,-1.55593 z"
       id="path3776"
       inkscape:connector-curvature="0"
       style="fill:#6a0000;fill-opacity:1;stroke-width:0.09152538" />
    <path
       d="m 112.91521,192.33566 c 0,-107.176219 -0.27458,-102.325372 5.7661,-113.582999 5.7661,-10.891516 17.11526,-19.769476 29.47116,-23.064391 3.66103,-1.006776 22.24067,-1.281354 94.0881,-1.281354 h 89.51182 l 6.95591,2.28813 c 15.65086,5.308475 25.99323,16.108475 30.84412,32.399987 1.28136,4.48474 1.46435,15.467787 1.46435,102.782997 v 97.7491 H 241.96604 112.91521 Z m 76.33214,70.84063 c 5.30849,-3.47796 5.03396,0 5.12542,-79.99317 v -73.86098 l -3.02031,-3.29491 c -3.9356,-4.39322 -8.87795,-5.12542 -13.45422,-2.01356 -1.73896,1.18983 -3.66103,3.20339 -4.30171,4.39322 -0.91525,1.83051 -1.09828,18.21355 -0.91525,76.14911 l 0.18308,73.76944 2.28809,2.47121 c 4.11868,4.48474 9.61016,5.30845 14.0949,2.37964 z m 58.21017,0.27461 c 5.76609,-3.478 5.49156,0.82371 5.49156,-80.35931 v -73.76945 l -3.11193,-3.47796 c -2.83723,-3.11187 -3.56945,-3.38645 -7.87111,-3.38645 -4.30175,0 -5.03397,0.27458 -7.8712,3.38645 l -3.11185,3.47796 v 74.04403 74.04402 l 2.47117,2.92882 c 3.9356,4.66781 9.24401,5.85763 14.00336,3.11189 z m 58.57624,0 c 5.7661,-3.478 5.49157,0.82371 5.49157,-80.35931 v -73.76945 l -3.11193,-3.47796 c -2.83724,-3.11187 -3.56946,-3.38645 -7.87112,-3.38645 -4.30175,0 -5.03397,0.27458 -7.87121,3.38645 l -3.11185,3.47796 v 74.04403 74.04402 l 2.47117,2.92882 c 3.93561,4.66781 9.2441,5.85763 14.00337,3.11189 z"
       id="path3778"
       inkscape:connector-curvature="0"
       style="fill:#7b0000;fill-opacity:1;stroke-width:0.09152538" />
  </g>
</svg>
